<svg id="Layer_1" data-name="Layer 1" xmlns="http://www.w3.org/2000/svg" viewBox="0 0 1000 1000"><defs><style>.cls-1{fill:#2885c6;}</style></defs><path class="cls-1" d="M516.42,834.53l2.32-.92a4.17,4.17,0,0,0,2.31-2.26,4.12,4.12,0,0,0,.06-3.23l-1.49-3.76a4.24,4.24,0,0,0-5.5-2.36l-2.31.92a1,1,0,0,1-.87-.32c-.51-.56-1-1.11-1.57-1.62a1,1,0,0,1-.29-.89l1-2.28a4.24,4.24,0,0,0-2.21-5.56l-3.72-1.61a4.25,4.25,0,0,0-5.55,2.21l-1,2.29a1,1,0,0,1-.86.4c-.73,0-1.49-.06-2.24,0a1,1,0,0,1-.83-.42l-.92-2.32a4.23,4.23,0,0,0-5.48-2.37l-3.77,1.51a4.21,4.21,0,0,0-2.36,5.48l.92,2.31a.85.85,0,0,1-.07.53,1.21,1.21,0,0,1-.25.35,20,20,0,0,0-1.62,1.56,1,1,0,0,1-.89.3l-2.28-1a4.23,4.23,0,0,0-5.55,2.21l-.89,2.05a310.18,310.18,0,0,1-173.57-65.34c-6.23-6.82-15.26-20.35-8.4-36.6,7.65-18.12,19-26.07,31-34.48,7.07-5,14.41-10.11,20.59-17.22,7.45-8.57,11.64-20,15.7-31,2.33-6.32,7.77-21.1,10.45-21.24,3.66.93,12.43,11.85,18.24,19.07,13.61,16.92,30.53,38,56,47.23,10.42,3.77,21.08,4.63,30.5,5.4,7.66.6,15.58,1.24,19.36,3.45a13.3,13.3,0,1,0,13.49-22.92c-9.05-5.32-20.07-6.21-30.72-7.06-8.12-.64-16.52-1.32-23.55-3.87-18.47-6.72-32.22-23.82-44.34-38.91-12.75-15.84-23.76-29.42-39.54-29-20.91.78-28.63,21.75-34.83,38.6-3.23,8.76-6.58,17.82-10.82,22.71-4.05,4.65-9.49,8.47-15.81,12.91-13.17,9.24-29.57,20.75-40.21,45.91a57.25,57.25,0,0,0-3.86,13.32C208,670.87,176,596,176,514.16a310.06,310.06,0,0,1,2.92-42.47c1.78.55,3.56,1.06,5.31,1.56,17.92,5.17,24.87,8.1,26.65,18.43,4.66,27.05,45.39,80.31,86.77,94.87a61.89,61.89,0,0,0,20.49,3.77,45.44,45.44,0,0,0,30.69-11.65c19.72-17.43.43-44.12-18.22-69.94-7.43-10.3-21-29.06-21.61-36.16a6.59,6.59,0,0,1,.89-.33c12.85-4.17,20-3.72,26.26-3.31,18.37,1.2,27.62-3.25,46-32,12-18.73,36.93-24.34,58.9-29.3,21.57-4.85,46-10.34,46-33.16,0-16.76-11.89-34.88-31-47.23-21.91-14.15-47.07-17.14-67.32-8-13.26,6-22,3-24.28,1.93a10.26,10.26,0,0,1-3.75-2.66c.07-.3.73-1.49,2.8-3,16.56-12.41,34.92-39.87,26.3-59.13-3.14-7-12.12-18.14-36.89-13.19A97.12,97.12,0,0,1,330.75,245,309.51,309.51,0,0,1,474.3,202.41,29.57,29.57,0,1,0,473,175.83,338.65,338.65,0,0,0,247.41,752.45a343.06,343.06,0,0,0,34,30.09q3.45,2.67,6.93,5.24s0,0,0,0a336.13,336.13,0,0,0,193,64.94l-.79,1.82a4.2,4.2,0,0,0,2.19,5.55l3.72,1.61a4.22,4.22,0,0,0,5.55-2.19l1-2.29a1,1,0,0,1,.85-.4,18.79,18.79,0,0,0,2.25,0,1,1,0,0,1,.84.43l.91,2.31a4.24,4.24,0,0,0,5.49,2.37l3.76-1.5a4.21,4.21,0,0,0,2.36-5.48l-.91-2.32a.89.89,0,0,1,.07-.54,1,1,0,0,1,.24-.34c.56-.49,1.11-1,1.62-1.56a1,1,0,0,1,.89-.29l2.29,1a4.21,4.21,0,0,0,5.55-2.19l1.61-3.72a4.24,4.24,0,0,0-2.21-5.55l-2.29-1a1,1,0,0,1-.4-.85,18.8,18.8,0,0,0,0-2.25,1,1,0,0,1,.09-.42A.87.87,0,0,1,516.42,834.53ZM298.92,266.42c18,5.78,39.12,6.83,59.2,2.81a28.94,28.94,0,0,1,7.26-.7c-.74,5.53-7.43,17.84-17.85,25.66-15.3,11.47-15.87,27.24-9.65,37.76,8.92,15.08,33.6,24.25,61.79,11.52,14.11-6.35,30.91-1,41.95,6.1,10.83,7,18.47,16.89,18.86,24.34-3.31,2.83-16.44,5.79-25.25,7.77-24.28,5.47-57.55,13-75.44,40.87-13.09,20.41-15,20.29-21.93,19.85-7.37-.49-18.5-1.21-36.2,4.53-11.64,3.78-16.23,11.14-18,16.65-5.76,17.6,8.68,37.59,25.38,60.72,7.77,10.74,20.5,28.39,21.22,35.25-4.11,3.26-11,6.42-23.8,1.89-32.33-11.36-66.35-56.78-69.36-74.28-4.79-27.73-28.32-34.51-45.51-39.47-2.71-.77-5.35-1.53-7.86-2.35C200.12,373.14,241.82,310.18,298.92,266.42Zm204,573a8.23,8.23,0,1,1-4.29-10.82A8.23,8.23,0,0,1,502.88,839.45Z"/><path class="cls-1" d="M640.8,440.49h-160a13.3,13.3,0,0,1,0-26.6H627.5V272.61a13.3,13.3,0,0,1,26.6,0V427.19A13.29,13.29,0,0,1,640.8,440.49Z"/><path class="cls-1" d="M765.92,499.26H401.84a13.3,13.3,0,1,1,0-26.6H752.61V422.91a13.31,13.31,0,0,1,26.61,0v63A13.3,13.3,0,0,1,765.92,499.26Z"/><path class="cls-1" d="M715,565.21H399c-6.42,0-11.62-6-11.62-13.3s5.2-13.3,11.62-13.3H715c6.43,0,11.63,5.95,11.63,13.3S721.39,565.21,715,565.21Z"/><path class="cls-1" d="M681.16,692.53a1.75,1.75,0,0,0,0,.4v26.19h-51.4a13.3,13.3,0,0,1-13.3-13.28v-73.5H448.48a13.3,13.3,0,1,1,0-26.59H629.72A13.3,13.3,0,0,1,643,619.05v73.48Z"/><path class="cls-1" d="M288.37,787.78a11.42,11.42,0,0,1-2.5-1.48,54.36,54.36,0,0,1-4.43-3.76Q284.89,785.21,288.37,787.78Z"/><path class="cls-1" d="M798.64,402a7.56,7.56,0,0,1-10.72,0,28.49,28.49,0,0,0-40.3,0,7.58,7.58,0,0,1-10.72-10.72,43.62,43.62,0,0,1,61.74,0A7.58,7.58,0,0,1,798.64,402Z"/><path class="cls-1" d="M821.78,376.86a7.58,7.58,0,0,1-12.95,5.36,58,58,0,0,0-82.12,0A7.58,7.58,0,0,1,716,371.5a73.13,73.13,0,0,1,103.57,0A7.51,7.51,0,0,1,821.78,376.86Z"/><path class="cls-1" d="M842.46,357a7.59,7.59,0,0,1-13,5.37,87.16,87.16,0,0,0-123.48,0,7.59,7.59,0,0,1-10.73-10.74,102.35,102.35,0,0,1,144.93,0A7.55,7.55,0,0,1,842.46,357Z"/><path class="cls-1" d="M795.17,685.23a2.72,2.72,0,0,0,2.72-2.72v-28a2.72,2.72,0,0,0-2.72-2.71H683.83a2.72,2.72,0,0,0-2.71,2.71v28a2.71,2.71,0,0,0,2.71,2.72h15.93v5H683.83a2.7,2.7,0,0,0-2.67,2.32,1.75,1.75,0,0,0,0,.4v28a2.72,2.72,0,0,0,2.71,2.73h15.93v5H683.83a2.71,2.71,0,0,0-2.71,2.71v28a2.72,2.72,0,0,0,2.71,2.71H795.17a2.72,2.72,0,0,0,2.72-2.71v-28a2.71,2.71,0,0,0-2.72-2.71H779.25v-5h15.92a2.72,2.72,0,0,0,2.72-2.73v-28a2.72,2.72,0,0,0-2.72-2.72H779.25v-5ZM693.66,667.55a5.43,5.43,0,1,1,5.42-5.43A5.43,5.43,0,0,1,693.66,667.55Zm3.64,37a5.26,5.26,0,0,1-3.64,1.43,5.42,5.42,0,0,1-1.48-10.64,5.14,5.14,0,0,1,1.48-.21,5.42,5.42,0,0,1,5.42,5.42A5.31,5.31,0,0,1,697.3,704.51Zm-3.64,39.82a5.42,5.42,0,1,1,5.42-5.43A5.43,5.43,0,0,1,693.66,744.33Zm19.23-5.43a5.42,5.42,0,1,1-10.84,0v-.06a5.42,5.42,0,0,1,10.84,0Zm79.39,16.85A1.3,1.3,0,0,1,791,757.1H748.63a1.32,1.32,0,0,1-1.27-1.35v-1.21a1.33,1.33,0,0,1,1.27-1.36H791a1.32,1.32,0,0,1,1.26,1.36Zm0-9.17a1.3,1.3,0,0,1-1.26,1.36H748.63a1.32,1.32,0,0,1-1.27-1.36v-1.21a1.32,1.32,0,0,1,1.27-1.35H791a1.31,1.31,0,0,1,1.26,1.35ZM791,734.87a1.3,1.3,0,0,1,1.26,1.35v1.2a1.3,1.3,0,0,1-1.26,1.35H748.63a1.32,1.32,0,0,1-1.27-1.35v-1.2a1.32,1.32,0,0,1,1.27-1.35Zm-78.13-34.36a5.42,5.42,0,1,1-5.42-5.42A5.43,5.43,0,0,1,712.89,700.51Zm79.39,16.84a1.32,1.32,0,0,1-1.26,1.36H748.63a1.33,1.33,0,0,1-1.27-1.36v-1.21a1.32,1.32,0,0,1,1.27-1.35H791a1.3,1.3,0,0,1,1.26,1.35Zm0-9.16a1.3,1.3,0,0,1-1.26,1.35H748.63a1.32,1.32,0,0,1-1.27-1.35V707a1.32,1.32,0,0,1,1.27-1.35H791a1.31,1.31,0,0,1,1.26,1.35ZM791,696.46a1.32,1.32,0,0,1,1.26,1.37V699a1.3,1.3,0,0,1-1.26,1.35H748.63a1.32,1.32,0,0,1-1.27-1.35v-1.2a1.33,1.33,0,0,1,1.27-1.37Zm-43.66-37a1.33,1.33,0,0,1,1.27-1.35H791a1.31,1.31,0,0,1,1.26,1.35v1.22A1.3,1.3,0,0,1,791,662H748.63a1.32,1.32,0,0,1-1.27-1.35Zm0,9.17a1.32,1.32,0,0,1,1.27-1.35H791a1.31,1.31,0,0,1,1.26,1.35v1.21a1.31,1.31,0,0,1-1.26,1.35H748.63a1.32,1.32,0,0,1-1.27-1.35Zm0,9.16a1.32,1.32,0,0,1,1.27-1.35H791a1.3,1.3,0,0,1,1.26,1.35V679a1.32,1.32,0,0,1-1.26,1.37H748.63a1.33,1.33,0,0,1-1.27-1.37Zm-39.89-21a5.43,5.43,0,1,1-5.42,5.42A5.42,5.42,0,0,1,707.47,656.7Z"/><path class="cls-1" d="M617.28,814.39l-4.55-1.95a4.1,4.1,0,0,1-2.08-3.79,40.72,40.72,0,0,0,0-4.28,4.21,4.21,0,0,1,.35-1.73,3.63,3.63,0,0,1,1.83-2l4.64-1.84a6.33,6.33,0,0,0,3.56-8.23l-3-7.54a6.35,6.35,0,0,0-8.24-3.54l-4.63,1.83a4,4,0,0,1-4.12-1.2,41.09,41.09,0,0,0-3-3.07A4.08,4.08,0,0,1,597,772.9l2-4.55a6.37,6.37,0,0,0-3.32-8.34l-7.43-3.2a6.35,6.35,0,0,0-8.34,3.3l-2,4.55a4.06,4.06,0,0,1-3.77,2.1,38.2,38.2,0,0,0-4.28-.06,4,4,0,0,1-3.7-2.17l-1.85-4.63a6.34,6.34,0,0,0-8.23-3.56l-7.52,3a6.34,6.34,0,0,0-3.56,8.22l1.84,4.64a3.56,3.56,0,0,1-.16,2.68,4.19,4.19,0,0,1-1,1.45,36.12,36.12,0,0,0-3.09,3,4.08,4.08,0,0,1-4.17,1.08l-4.57-2a6.33,6.33,0,0,0-8.32,3.32l-3.2,7.43a6.33,6.33,0,0,0,3.3,8.32l4.55,2a4,4,0,0,1,2.08,3.79c-.08,1.41-.1,2.84,0,4.28a3.91,3.91,0,0,1-.35,1.73,3.63,3.63,0,0,1-1.83,2l-4.62,1.84a6.33,6.33,0,0,0-3.56,8.23l3,7.52a6.34,6.34,0,0,0,3.39,3.49,6.28,6.28,0,0,0,4.85.07l4.64-1.83a4,4,0,0,1,4.13,1.19,39,39,0,0,0,3,3.07A4.12,4.12,0,0,1,545.9,839l-2,4.55a6.33,6.33,0,0,0,3.3,8.32l7.45,3.22a6.34,6.34,0,0,0,8.32-3.32l2-4.55a4.1,4.1,0,0,1,3.79-2.08,35.58,35.58,0,0,0,4.26,0,4.06,4.06,0,0,1,3.7,2.19l1.85,4.63a6.34,6.34,0,0,0,8.23,3.56l7.53-3a6.31,6.31,0,0,0,3.56-8.22L596,839.68a3.64,3.64,0,0,1,.17-2.67,4,4,0,0,1,1-1.45,41,41,0,0,0,3.07-3,4.09,4.09,0,0,1,4.19-1.08l4.55,2a6.33,6.33,0,0,0,8.32-3.32l3.22-7.43A6.36,6.36,0,0,0,617.28,814.39Zm-28.76-1.09a18.57,18.57,0,1,1-9.7-24.41A18.62,18.62,0,0,1,588.52,813.3Z"/><path class="cls-1" d="M850.32,561.06a2.82,2.82,0,0,0-.24-2.93l-23.43-31.76a2.8,2.8,0,0,0-4.51,0l-23.58,31.75a2.8,2.8,0,0,0,2.25,4.48h9.43v38.31a2.78,2.78,0,0,0,.82,2,2.82,2.82,0,0,0,2,.82h22.55a2.8,2.8,0,0,0,2.8-2.8V562.6h9.43A2.81,2.81,0,0,0,850.32,561.06Z"/><path class="cls-1" d="M745.45,570.27a2.66,2.66,0,0,0,.23,2.77l23.44,31.75a2.65,2.65,0,0,0,4.26,0L797,573.05a2.66,2.66,0,0,0-2.13-4.24h-9.58V527.2a2.65,2.65,0,0,0-2.65-2.65H760.05a2.63,2.63,0,0,0-2.65,2.65v41.61h-9.58A2.66,2.66,0,0,0,745.45,570.27Z"/><path class="cls-1" d="M581.94,137.73a3.48,3.48,0,0,0-3.48,3.49v72.07a3.48,3.48,0,0,0,3.48,3.48H699.08a3.49,3.49,0,0,0,3.49-3.48V141.22a3.49,3.49,0,0,0-3.49-3.49ZM694.36,209H586.44V145.3H694.36Z"/><path class="cls-1" d="M701.32,218.27H579.71a3.2,3.2,0,0,0-2.21.91L565.25,230.7c-2.54,2.38-1.07,7.1,2.2,7.1H713.58c3.27,0,4.74-4.72,2.2-7.1l-12.26-11.52A3.17,3.17,0,0,0,701.32,218.27Z"/></svg>